<svg width="5000" height="2500" xmlns="http://www.w3.org/2000/svg"><g fill="none" fill-rule="evenodd"><path d="M1500 1854h-500v-.447l-.447.447H646v-353.555l.445-.445H646v-500h.446L189.34 542.893 542.893 189.34 1000 646.446V0h500v646.445l457.107-457.105 353.553 353.553L1853.553 1000H2500v500h-646.446l457.106 457.107-353.553 353.553L1500 1853.554v.446z" fill="#000"/><path d="M1500 2500h-500v-646.448L542.893 2310.66 189.34 1957.107 646.445 1500H0v-500h1500v1500z" fill="#FFF"/><path d="M3928.459 1708.216c60.73 0 107.074 25.588 139.012 76.802 33.069 53.028 49.316 124.398 49.316 213.912 0 89.978-16.241 161.525-49.31 214.438-31.94 51.104-78.288 76.632-139.018 76.632-60.74 0-107.15-25.534-139.204-76.645-33.184-52.91-49.48-124.453-49.48-214.425 0-89.508 16.302-160.874 49.485-213.899 32.054-51.22 78.46-76.815 139.199-76.815zm0 36.719c-38.825 0-71.717 21.236-97.796 65.572-24.438 41.546-37.05 104.26-37.05 188.423 0 84.411 12.618 147.187 37.057 188.613 26.077 44.202 58.964 65.382 97.789 65.382 38.572 0 71.346-21.165 97.432-65.382 24.439-41.426 37.058-104.202 37.058-188.613 0-84.162-12.613-146.877-37.051-188.423-26.088-44.352-58.868-65.572-97.44-65.572zm-419.721-19.596l169.658 547.539h-56.835l-38.88-124.852h-214.514l-38.168 124.852h-50.041l168.626-547.54h60.154zm-34.933 64.478l-23.334 93.34-70.634 228.151h192.747l-72.578-228.327-26.201-93.164zm-477.781-64.478l1.84.003c58.395.205 102.057 10.011 130.573 30.413 28.563 20.435 49.822 51.493 64.142 92.878 14.782 42.718 22.101 93.301 22.101 151.724 0 55.266-7.71 103.815-23.27 145.62-15.21 40.86-36.654 72.41-64.595 94.447-27.648 21.805-70.822 32.244-129.015 32.45l-1.768.004h-124.477v-547.54h124.469zm-5.342 37.075h-65.29v468.038h59.226l1.598-.003c52.574-.202 89.682-10.37 112.015-29.087 22.697-19.02 39.067-45.318 48.84-79.08 9.351-32.304 14.128-76.738 14.128-133.34 0-55.975-5.666-98.95-16.66-129-11.425-31.229-27.924-55.109-49.228-71.848-21.23-16.68-55.903-25.68-104.63-25.68h0zm98.094-803.663c30.795 0 65.502 7.018 104.145 20.885h0v43.583l-.752-.384c-35.203-17.851-70.23-26.804-105.046-27.005l-1.2-.004c-31.802 0-60.82 10.757-86.996 32.442-25.406 21.048-46.051 51.71-61.632 92.22-15.287 39.748-22.96 82.856-22.96 129.334 0 47.47 7.986 91.263 23.89 131.39 16.203 40.885 36.929 71.342 61.834 91.64 25.67 20.922 54.304 31.322 85.863 31.322 35.267 0 70.947-9 107-27.157h0l-.001 43.31-.158.056c-38.136 13.462-72.437 20.35-102.925 20.506l-1.062.003c-42.522 0-81.634-11.366-117.334-34.106-35.767-22.783-63.45-56.753-83.257-101.72-20.165-45.78-30.185-97.537-30.185-155.244 0-57.247 9.907-108.717 29.841-154.382 19.586-44.868 47.168-78.954 82.944-102.084 35.693-23.076 75.025-34.605 117.99-34.605zm1302.686 165.161c39.868 0 77.795 5.411 113.776 16.259h0v40.408l-.278-.09c-40.562-13.105-78.905-19.697-115.016-19.856l-1.336-.003c-31.113 0-55.275 5.78-72.717 16.68-19.815 12.385-28.956 27.997-28.956 46.114 0 18.158 8.336 32.878 25.732 43.787 14.426 9.048 37.745 19.508 70.02 31.245h0l46.006 16.763 1.251.458c39.74 14.625 67.903 30.228 84.1 47.327 15.142 16.234 22.584 36.45 22.584 60.54 0 32.332-12.369 58.915-37.106 79.746-25.772 21.704-67.352 31.894-124.112 31.894-48.902 0-99.189-9.913-150.874-29.656h0v-47.752l.158.091c23.225 13.237 47.483 22.933 72.77 29.101l1.433.346c31.346 7.47 58.043 11.152 80.08 11.152 37.154 0 63.619-6.578 79.924-18.52 18.033-13.204 26.743-29.842 26.743-49.625 0-13.519-4.321-25.096-12.833-34.782-7.76-8.54-26.34-19.272-56.526-31.552h0l-23.594-9.652-47.159-18.579-1.517-.593c-47.29-18.538-77.671-35.292-90.237-51.225-11.988-14.986-17.827-33.151-17.827-54.45 0-30.65 11.763-55.796 35.29-75.438 24.608-20.546 64.898-30.138 120.22-30.138zm-438.747 5.35c12.835 0 31.97 1.421 57.403 4.221 4.052.476 9.966 1.069 17.744 1.777l.735.067h58.583v278.59l.002 1.485c.088 42.617 4.013 78.395 11.642 107.36l.268 1.007h-49.515l-.017-.08c-4.29-20.852-7.756-47.886-10.438-81.094l-.104-1.297c-.998-12.513-1.75-24.186-2.254-35.014-4.543 10.18-9.955 20.369-16.231 30.568-19.994 32.491-43.844 57.108-71.69 73.702-27.268 16.25-52.216 24.63-74.96 24.63-31.586 0-59.727-13.87-84.668-41-25.745-28.005-38.026-70.767-38.026-127.716 0-45.684 8.596-86.456 25.932-122.278 17.173-35.483 40.211-63.622 69.22-84.326 28.75-20.52 64.25-30.601 106.374-30.601zm8.917 37.076c-44.868 0-82.307 17.357-112.271 52.168-29.318 34.06-44.334 80.305-44.334 139.045 0 43.187 8.581 75.538 24.79 97.445 17.569 23.747 37.808 34.909 60.118 34.909 22.991 0 48.607-11.074 76.512-34.437 26.926-22.544 51.168-53.092 72.603-91.748h0v-185.464l-8.868-2.329-1.42-.366c-24.09-6.168-46.469-9.223-67.13-9.223zm-383.457-42.426c21.399 0 42.796 2.974 64.194 8.908h0v129.832h-45.633v-91.942l-9.204-1.523c-11.706-1.923-21.01-2.85-27.906-2.85-27.284 0-54.301 10.546-80.871 32.216-25.734 20.987-50.809 52.706-75.021 95.345h0v229.871h-48.13v-388.442h48.13v113.84l19.134-30.4c20.072-31.75 43.016-55.587 68.995-71.333 25.91-15.704 54.687-23.522 86.312-23.522zm1139.303-170.511v296.01l19.158-30.692c18.533-29.542 40.75-52.792 66.737-69.666 25.655-16.66 51.338-25.141 77.13-25.141 21.383 0 40.866 5.373 58.435 16.176 17.166 10.556 29.22 23.293 35.846 38.467 5.915 12.302 9.842 25.045 11.946 38.56 2.198 14.113 3.248 43.118 3.27 86.997h0v219.657h-48.13V1297.26l-.001-1.185c-.04-40.317-2.232-66.84-6.141-79.668-4.41-14.468-12.476-26.38-24.186-35.75-12.02-9.616-25.124-14.32-39.242-14.32-25.912 0-53.822 11.78-83.437 36.374-28.92 24.017-52.732 54.112-71.385 90.327h0v230.731h-48.131V953.401h48.13zM3051.322 210c36.903 0 72.689 5.08 107.356 15.248h0l-.001 41.381-.78-.271c-37.343-12.947-73.84-19.474-109.485-19.637l-1.37-.003c-34.135 0-61.67 9.302-82.828 27.365-21.975 18.76-32.757 41.33-32.757 67.534 0 26.154 8.53 47.766 25.318 64.954 15.557 15.928 35.28 30.599 59.22 43.942h0l28.348 17.009 35.388 21.806 30.315 17.476 1.709 1.056c57.191 35.6 86.517 79.956 86.517 133.757 0 41.228-15.016 76.533-44.982 105.943-30.525 29.96-79.625 44.224-146.556 44.224-21.717 0-42.51-1.843-62.378-5.54-18.675-3.474-42.7-10.413-72.088-20.766h0v-46.902l1.627.719c53.25 23.43 102.051 35.157 146.361 35.41l1.46.004c21.31 0 41.732-4.063 61.266-12.181 20.36-8.462 35.662-20.788 46.092-36.764 10.488-16.064 15.717-33.526 15.717-52.375 0-21.856-7.083-42.37-21.447-61.479-13.515-17.978-38.586-37.949-75.581-59.547h0l-37.481-21.418-37.732-21.715-1.902-1.133c-61.174-36.726-92.673-81.939-92.673-136.492 0-39.959 13.83-73.561 41.588-100.765 28.226-27.662 72.367-40.84 131.759-40.84h0zm877.494 164.804c55.056 0 99.255 19.064 132.434 57.53 33.593 38.946 50.186 88.31 50.186 147.928 0 59.402-16.607 108.77-50.205 147.949-33.174 38.686-77.365 57.865-132.415 57.865-55.29 0-99.665-19.18-132.962-57.878-33.709-39.176-50.372-88.54-50.372-147.936 0-59.613 16.65-108.972 50.353-147.915 33.302-38.478 77.684-57.543 132.98-57.543zm0 36.718c-39.989 0-71.69 15.514-95.175 46.396-22.641 29.773-34.322 70.458-34.322 122.344 0 52.129 11.684 92.931 34.322 122.7 23.486 30.882 55.186 46.396 95.175 46.396 39.485 0 70.959-15.493 94.46-46.396 22.638-29.769 34.322-70.571 34.322-122.7 0-51.886-11.68-92.571-34.322-122.344-23.501-30.904-54.975-46.396-94.46-46.396zm286.437-25.303l37.57 240.257 19.856 114.88 19.769-114.38 63.21-240.757h45.81l71.266 241.137 24.698 111.146 15.925-112.168 37.893-240.115h32.135l-63.099 388.442h-47.535l-76.234-255.39-14.107-65.3h-18.062l-12.96 65.21-65.772 255.48h-50.089L4172.43 386.22h42.824zm-683.093-11.415c22.246 0 42.43 5.864 60.537 17.645 17.867 11.625 30.46 26.767 37.677 45.508 7.732 20.08 11.282 59.607 11.282 118.404h0v218.3h-48.13V548.152l-.001-1.185c-.04-40.317-2.232-66.84-6.141-79.668-4.41-14.468-12.476-26.381-24.186-35.75-12.02-9.616-25.124-14.32-39.242-14.32-25.912 0-53.822 11.78-83.437 36.374-28.92 24.017-52.733 54.112-71.386 90.327h0v230.731h-48.13V386.22h48.13v114.084l19.16-30.692c18.532-29.542 40.75-52.792 66.736-69.666 25.655-16.66 51.338-25.141 77.13-25.141z" stroke="#000" stroke-width="20" fill="#000" fill-rule="nonzero"/></g></svg>