<svg width="1000" height="1000" xmlns="http://www.w3.org/2000/svg"><g fill="none" fill-rule="evenodd"><circle fill="#5000FF" cx="500" cy="500" r="500"/><path d="M565 825H435v-.001L565 825zm0-650v168.075l118.848-118.847 91.924 91.924L656.923 435H825v130H656.924l118.848 118.848-91.924 91.924L565 656.924v.116l-130-.001v-.116l-.117.116-91.923.001v-91.925l.115-.115h-.116V435h.117L224.228 316.152l91.924-91.924L435 343.076V175h130z" fill="#D6D6D6"/><path d="M565 825H435V656.922l-118.848 118.85-91.924-91.924L343.074 565H175V435h390v390z" fill="#FFF"/></g></svg>